<?xml version="1.0" encoding="UTF-8"?>
<svg version="1.1" xmlns="http://www.w3.org/2000/svg" width="344" height="291">
<path d="M0 0 C0.99 0 1.98 0 3 0 C3.763125 0.78375 4.52625 1.5675 5.3125 2.375 C9.13610354 6.10968253 12.79034372 7.10588043 18.05078125 7.16015625 C19.47155205 7.13785422 20.89219433 7.10514794 22.3125 7.0625 C24.87961587 7.0011075 27.43117061 6.97925974 30 7 C31 8 31 8 31.3125 11.625 C31.19286605 24.08686956 25.79209942 36.82051127 20.25 47.8125 C19.90074463 48.50682129 19.55148926 49.20114258 19.19165039 49.91650391 C16.15524653 55.86007369 12.75896305 61.48281229 9 67 C8.48179687 67.76957031 7.96359375 68.53914063 7.4296875 69.33203125 C3.73374356 74.71525395 -0.15945646 79.9536141 -4.0625 85.1875 C-4.55709717 85.85289795 -5.05169434 86.5182959 -5.5612793 87.20385742 C-6.04765869 87.85201416 -6.53403809 88.5001709 -7.03515625 89.16796875 C-7.4619165 89.73797607 -7.88867676 90.3079834 -8.32836914 90.89526367 C-10.7965902 94.00298 -13.4172505 96.98679225 -16 100 C-3.13 100.495 -3.13 100.495 10 101 C10 101.99 10 102.98 10 104 C5.60796477 104.27433434 1.22059263 104.47254024 -3.17749023 104.60424805 C-4.66893407 104.65918835 -6.15979559 104.73398397 -7.64916992 104.82983398 C-19.93524737 105.60003059 -19.93524737 105.60003059 -24.80615234 101.82543945 C-27.14028388 98.99854681 -29.08067306 96.12084237 -31 93 C-32.16945571 91.41363389 -33.35089475 89.83599713 -34.546875 88.26953125 C-35.6181981 86.78645867 -36.68597695 85.30081866 -37.75 83.8125 C-38.28753906 83.07064453 -38.82507813 82.32878906 -39.37890625 81.56445312 C-49 68.18621693 -49 68.18621693 -49 64 C-49.66 64 -50.32 64 -51 64 C-54.77483444 57.58278146 -54.77483444 57.58278146 -56.0625 54.25 C-56.82653185 51.96955412 -56.82653185 51.96955412 -58.4609375 50.66796875 C-60.39516009 48.57174275 -60.84009122 46.80765338 -61.5625 44.0625 C-62.433917 40.79837869 -63.44945311 37.99577361 -65 35 C-68.61207656 26.2943311 -71.2041469 17.49283108 -71 8 C-70.17757812 8.03480469 -69.35515625 8.06960937 -68.5078125 8.10546875 C-59.88206359 8.31463818 -51.81585156 8.02471754 -44.6875 2.6875 C-42 1 -42 1 -39.5625 1.5 C-38.14251947 2.33120812 -36.72350982 3.16410618 -35.30859375 4.00390625 C-28.70447504 7.86938394 -22.66352099 8.83299141 -15 8 C-11.52661288 6.93784829 -8.29468071 5.51721431 -5 4 C-3.33656159 3.32531869 -1.67071412 2.65645758 0 2 C0 1.34 0 0.68 0 0 Z " fill="#E4AD84" transform="translate(193,166)"/>
<path d="M0 0 C1.26674561 0.15073975 2.53349121 0.30147949 3.83862305 0.45678711 C4.55116745 0.54157822 5.26371185 0.62636932 5.99784851 0.71372986 C16.86925734 2.26813759 26.83905159 10.064895 34 18 C34.60199219 18.598125 35.20398438 19.19625 35.82421875 19.8125 C45.48054892 29.81829736 50.17318436 41.09956318 50.11352539 54.92114258 C50.11367142 55.80944763 50.11381744 56.69775269 50.1139679 57.61297607 C50.11327293 60.54018624 50.1055 63.46733225 50.09765625 66.39453125 C50.09579059 68.42762721 50.09436739 70.46072362 50.09336853 72.49382019 C50.08955499 77.83838141 50.07973462 83.18291536 50.06866455 88.52746582 C50.05842543 93.98380158 50.05386555 99.44014177 50.04882812 104.89648438 C50.03811132 115.59766822 50.02104885 126.29883184 50 137 C43.34846445 136.2915047 39.89083718 135.01557491 34.39453125 131.08203125 C32.02624137 129.70429492 32.02624137 129.70429492 29.48828125 130.6953125 C28.66714844 131.12585938 27.84601563 131.55640625 27 132 C26.22398437 132.34160156 25.44796875 132.68320313 24.6484375 133.03515625 C23.12751012 133.72244817 21.60667741 134.40994963 20.0859375 135.09765625 C16.37708521 136.70204741 13.51279593 137.13578709 9.5 137.125 C8.5409375 137.12757813 7.581875 137.13015625 6.59375 137.1328125 C4 137 4 137 1 136 C0.1784517 132.41077507 -0.12378174 129.10435037 -0.12025452 125.42546082 C-0.12162918 124.31633331 -0.12300385 123.20720581 -0.12442017 122.06446838 C-0.12082489 120.85749802 -0.11722961 119.65052765 -0.11352539 118.40698242 C-0.11367142 117.12853455 -0.11381744 115.85008667 -0.1139679 114.53289795 C-0.11425439 111.03535757 -0.10838157 107.5378516 -0.10139394 104.0403192 C-0.09513577 100.38213129 -0.09455465 96.72394256 -0.09336853 93.06575012 C-0.09026248 86.14208744 -0.08205888 79.21844057 -0.07201904 72.29478484 C-0.06083536 64.41090331 -0.05534177 56.52702101 -0.05032361 48.64313352 C-0.03987566 32.42874642 -0.02229027 16.21437523 0 0 Z " fill="#F35F3D" transform="translate(120,32)"/>
<path d="M0 0 C0 44.88 0 89.76 0 136 C-5.1191863 138.55959315 -14.16226515 137.82482353 -19.59375 136.24609375 C-23.44791171 134.35607214 -26.77017166 131.8260998 -30 129 C-30.59167969 129.40992188 -31.18335938 129.81984375 -31.79296875 130.2421875 C-32.58316406 130.78101563 -33.37335938 131.31984375 -34.1875 131.875 C-34.96480469 132.40867188 -35.74210938 132.94234375 -36.54296875 133.4921875 C-40.84205428 136.13041805 -43.9751629 137.10785834 -49 137 C-49.17784574 126.14206913 -49.34373279 115.28402552 -49.49477577 104.42568684 C-49.5652941 99.38255849 -49.63977565 94.33955644 -49.72363281 89.29663086 C-49.80455999 84.4208174 -49.87466089 79.54495273 -49.93757248 74.66887474 C-49.96329583 72.8179072 -49.9927784 70.96698757 -50.02626419 69.11614418 C-50.41563969 47.28372921 -47.68591271 32.80574997 -32.51806641 16.56542969 C-23.95336695 7.73351381 -12.55762013 0 0 0 Z " fill="#F35F3D" transform="translate(225,32)"/>
<path d="M0 0 C0.04669436 21.05308332 0.08197626 42.10615811 0.10362434 63.15928268 C0.11394251 72.93433105 0.12801318 82.70934727 0.15087891 92.484375 C0.17079623 101.00301931 0.1837125 109.52164034 0.18817699 118.04030728 C0.19078718 122.55201426 0.1969335 127.06365462 0.21146011 131.57534027 C0.22501783 135.82043018 0.22922631 140.06542593 0.22621536 144.31053543 C0.22676634 145.86981594 0.23075457 147.42909955 0.23841095 148.98836136 C0.24834397 151.11530228 0.24597504 153.24188648 0.24050903 155.36883545 C0.24235262 156.55979198 0.24419621 157.75074852 0.24609566 158.97779465 C0.00478766 161.94120463 -0.34129084 163.56382194 -2 166 C-12.72672857 173.46207205 -27.17110796 175.75721529 -39.62988281 179.00146484 C-42.52326726 179.75606817 -45.41400821 180.52026357 -48.3046875 181.28515625 C-50.15089121 181.76880387 -51.99724023 182.2518972 -53.84375 182.734375 C-54.70415894 182.96243835 -55.56456787 183.19050171 -56.4510498 183.42547607 C-57.65380554 183.73645233 -57.65380554 183.73645233 -58.88085938 184.05371094 C-59.58190796 184.23705994 -60.28295654 184.42040894 -61.00524902 184.60931396 C-63 185 -63 185 -67 185 C-67 184.34 -67 183.68 -67 183 C-64.57729282 181.14463564 -62.1432795 179.40519419 -59.625 177.6875 C-58.07382648 176.60733394 -56.52305937 175.52658406 -54.97265625 174.4453125 C-52.46993852 172.70994919 -49.96594502 170.9764673 -47.46044922 169.24511719 C-44.98638876 167.52881245 -42.52380851 165.79702449 -40.0625 164.0625 C-38.90065186 163.26622192 -38.90065186 163.26622192 -37.71533203 162.45385742 C-32.43798223 158.78159791 -32.43798223 158.78159791 -30 153 C-28.97572449 146.37352363 -28.87639981 139.91658703 -28.91821289 133.21899414 C-28.92127945 132.0618541 -28.92434601 130.90471405 -28.92750549 129.71250916 C-28.93463617 127.21024437 -28.94401328 124.70798519 -28.95540047 122.20573616 C-28.97284864 118.24144451 -28.98332515 114.2771697 -28.99131775 110.31285095 C-29.01537537 99.04487263 -29.05129729 87.77694806 -29.09594727 76.5090332 C-29.1205736 70.27449184 -29.13788739 64.03997134 -29.14750665 57.80538839 C-29.15295007 54.51371996 -29.16346771 51.22218886 -29.18089485 47.93055916 C-29.20017278 44.25713255 -29.20701575 40.58387088 -29.21118164 36.91040039 C-29.21994324 35.83323761 -29.22870483 34.75607483 -29.23773193 33.64627075 C-29.22558889 24.23747454 -28.39527365 15.33757242 -22 8 C-15.08578509 2.24665881 -8.99245336 -0.10579357 0 0 Z " fill="#0F7474" transform="translate(282,31)"/>
<path d="M0 0 C8.72824466 -0.09703015 14.98998881 1.70869805 21.4375 7.8125 C28.42551365 14.88804618 28.43364107 22.25535095 28.38476562 31.69311523 C28.39301287 33.63626457 28.40126089 35.5794139 28.40953827 37.5225631 C28.41551926 39.60049874 28.41416149 41.67831396 28.41069031 43.7562542 C28.40385302 48.09835357 28.41979578 52.44019077 28.43908691 56.78224182 C28.47686966 66.00064718 28.48973017 75.2190291 28.5 84.4375 C28.51108832 94.38795743 28.52652351 104.3382931 28.57071257 114.28866726 C28.58900478 118.59927975 28.59298435 122.90958997 28.58577728 127.22023189 C28.58461817 129.25892956 28.59028033 131.2974733 28.59895325 133.33615112 C28.60945423 135.81373418 28.60945593 138.2913947 28.59660339 140.76896667 C28.64912825 147.83276974 28.74966771 154.73716643 34.03125 160.0390625 C34.8459375 160.56242188 35.660625 161.08578125 36.5 161.625 C37.94246094 162.59373047 37.94246094 162.59373047 39.4140625 163.58203125 C39.96739258 163.94893066 40.52072266 164.31583008 41.09082031 164.69384766 C45.10763215 167.44192225 48.97423086 170.40331293 52.875 173.3125 C58.81772971 177.78342276 58.81772971 177.78342276 65.0703125 181.79296875 C66.02550781 182.39044922 66.02550781 182.39044922 67 183 C67 183.66 67 184.32 67 185 C59.30862869 184.34129314 52.05016113 182.28256102 44.625 180.25 C43.2806892 179.88549061 41.9362875 179.52131628 40.59179688 179.1574707 C37.94085968 178.43903231 35.29088235 177.71719721 32.64160156 176.99267578 C29.51117458 176.13934271 26.37793166 175.29836013 23.2421875 174.46484375 C21.66133891 174.03950611 20.08059823 173.61376705 18.5 173.1875 C17.8085791 173.00541992 17.1171582 172.82333984 16.40478516 172.63574219 C10.73687991 171.08332224 5.42273239 168.94573656 1 165 C-2.11197862 156.842485 -1.23769311 147.19065718 -1.13525391 138.61450195 C-1.12480581 137.09566322 -1.11527473 135.57681794 -1.10658264 134.05796814 C-1.08061279 129.96772825 -1.04194313 125.87769869 -1.00085878 121.78758645 C-0.96000408 117.50087688 -0.93101526 113.21408677 -0.90072632 108.92729187 C-0.84169241 100.82440281 -0.77210608 92.72164072 -0.69865549 84.61887091 C-0.61549714 75.38789791 -0.54421371 66.15684489 -0.47388959 56.92576659 C-0.32906748 37.95039269 -0.16945674 18.97516909 0 0 Z " fill="#117575" transform="translate(64,31)"/>
<path d="M0 0 C0 60.72 0 121.44 0 184 C-7.88907116 185.31484519 -15.45060434 186.41075503 -23.37890625 186.96484375 C-25.52710086 187.12522735 -27.67529418 187.28562836 -29.82348633 187.44604492 C-30.92608795 187.52631927 -32.02868958 187.60659363 -33.16470337 187.68930054 C-63.36959874 189.66139194 -63.36959874 189.66139194 -93.36328125 193.578125 C-95.9204788 193.98727661 -98.28930402 194.10167721 -100.875 194.0625 C-101.65617188 194.05347656 -102.43734375 194.04445312 -103.2421875 194.03515625 C-104.11230469 194.01775391 -104.11230469 194.01775391 -105 194 C-104.505 193.01 -104.505 193.01 -104 192 C-101.63716309 191.33075051 -99.33557232 190.78778022 -96.93359375 190.30078125 C-96.20007187 190.14491043 -95.46654999 189.98903961 -94.71080017 189.82844543 C-92.28794231 189.31531091 -89.86279588 188.81397296 -87.4375 188.3125 C-85.76169086 187.95972605 -84.08607368 187.60603909 -82.41064453 187.25146484 C-79.83447429 186.70650575 -77.2581646 186.16230268 -74.68115234 185.62133789 C-69.05046988 184.43902153 -63.42687774 183.22814184 -57.80859375 181.98828125 C-56.72912727 181.75021507 -56.72912727 181.75021507 -55.62785339 181.50733948 C-52.24164506 180.75974447 -48.85594765 180.00988222 -45.47045898 179.2590332 C-26.12016202 175 -26.12016202 175 -20 175 C-20.00276538 174.18185538 -20.00553076 173.36371077 -20.00837994 172.52077389 C-20.07465439 152.60669084 -20.12428772 132.69262683 -20.15543652 112.77845669 C-20.17090051 103.14808121 -20.19198111 93.51777938 -20.22631836 83.88745117 C-20.25623501 75.49293104 -20.27557841 67.09846425 -20.28226548 58.70389229 C-20.2861739 54.25968036 -20.2953495 49.81562104 -20.31719017 45.37145805 C-20.33759111 41.18624358 -20.34382652 37.00124421 -20.33932304 32.81598473 C-20.34014663 31.282146 -20.34609084 29.74829989 -20.35761642 28.21450424 C-20.37261758 26.11474147 -20.36892663 24.01578308 -20.36076355 21.91600037 C-20.36352893 20.7425579 -20.36629431 19.56911543 -20.36914349 18.3601141 C-19.70971045 12.35765076 -17.2337841 7.35474936 -13 3 C-4.33009709 -2.16504854 -4.33009709 -2.16504854 0 0 Z " fill="#17797A" transform="translate(317,32)"/>
<path d="M0 0 C6.92600238 0.97207051 11.42472445 3.68415878 16 9 C18.62188385 13.46045824 19.37282222 16.68063786 19.36076355 21.83370972 C19.36332682 22.4962882 19.3658901 23.15886667 19.36853105 23.84152329 C19.37344835 26.04808438 19.35701104 28.25395183 19.34057617 30.46044922 C19.33972945 32.04752079 19.34020592 33.63459354 19.34190369 35.22166443 C19.34276331 39.52086222 19.32514292 43.81980816 19.30418181 48.11894751 C19.28540952 52.61526552 19.28366414 57.11158951 19.28010559 61.60794067 C19.27078675 70.11825339 19.24617514 78.62845029 19.21605712 87.13871205 C19.18250811 96.82909788 19.16602584 106.51948928 19.15097082 116.20991874 C19.11962545 136.14001043 19.06686807 156.06999791 19 176 C20.00479936 176.09386144 20.00479936 176.09386144 21.02989769 176.18961906 C21.91757143 176.27495462 22.80524517 176.36029018 23.71981812 176.44821167 C24.59593435 176.53141096 25.47205059 176.61461025 26.37471581 176.70033073 C30.32276904 177.1509906 34.16259024 177.96207243 38.0390625 178.8203125 C38.87155518 178.99993027 39.70404785 179.17954803 40.56176758 179.36460876 C43.25068786 179.94613049 45.9378314 180.53544218 48.625 181.125 C50.48866754 181.52968548 52.35243821 181.9338963 54.21630859 182.33764648 C58.91097811 183.35605438 63.60417851 184.38105149 68.296875 185.4085083 C71.70314664 186.15386096 75.11005632 186.89626833 78.51699829 187.6385498 C86.67987483 189.41718997 94.84081633 191.20448839 103 193 C103 193.66 103 194.32 103 195 C98.17050783 195.18939185 93.7467759 194.86388154 88.97558594 194.06835938 C82.52287065 193.04611569 76.08444341 192.35201664 69.578125 191.78125 C68.43502869 191.67784302 67.29193237 191.57443604 66.11419678 191.46789551 C63.70765021 191.25093899 61.30092862 191.0359158 58.89404297 190.82275391 C55.30007411 190.50443508 51.70664645 190.18052402 48.11328125 189.85546875 C38.66792887 189.00602574 29.22295712 188.16452469 19.76757812 187.43359375 C18.61578064 187.34436646 17.46398315 187.25513916 16.27728271 187.16320801 C14.09026368 186.99572551 11.90297352 186.8317355 9.71539307 186.67175293 C8.7429364 186.59767212 7.77047974 186.52359131 6.76855469 186.44726562 C5.91670593 186.38462524 5.06485718 186.32198486 4.18719482 186.25744629 C2 186 2 186 -1 185 C-1.02332624 161.02665225 -1.04097782 137.05330618 -1.05181217 113.07994938 C-1.05697571 101.94953597 -1.06401952 90.8191296 -1.07543945 79.6887207 C-1.08538451 69.99119784 -1.091853 60.29368007 -1.09408849 50.59615225 C-1.0953959 45.45802171 -1.09848366 40.31990574 -1.10573006 35.18177986 C-1.11248747 30.35150554 -1.11461753 25.52125188 -1.11310768 20.69097328 C-1.11338414 18.91274147 -1.1153909 17.13450902 -1.11920547 15.35628128 C-1.12413838 12.93936364 -1.1229998 10.52252533 -1.12025452 8.10560608 C-1.12316736 7.39258443 -1.1260802 6.67956279 -1.12908131 5.94493443 C-1.11412121 1.11412121 -1.11412121 1.11412121 0 0 Z " fill="#177979" transform="translate(30,31)"/>
<path d="M0 0 C17.16 0 34.32 0 52 0 C51.05989055 3.76043779 50.31202771 5.26230786 48.0859375 8.265625 C47.48910156 9.07386719 46.89226562 9.88210937 46.27734375 10.71484375 C45.64957031 11.55144531 45.02179688 12.38804687 44.375 13.25 C43.46814453 14.48169922 43.46814453 14.48169922 42.54296875 15.73828125 C38.56565139 21.08942678 34.42671961 25.94089188 30 31 C42.87 31.495 42.87 31.495 56 32 C56 32.99 56 33.98 56 35 C51.60796477 35.27433434 47.22059263 35.47254024 42.82250977 35.60424805 C41.33106593 35.65918835 39.84020441 35.73398397 38.35083008 35.82983398 C26.06994142 36.59970532 26.06994142 36.59970532 21.20043945 32.83642578 C18.86202712 30.00672117 16.92169508 27.12524718 15 24 C13.79483882 22.35550809 12.57811155 20.71940275 11.34765625 19.09375 C10.24895218 17.56511826 9.1538309 16.03390433 8.0625 14.5 C7.49982422 13.71625 6.93714844 12.9325 6.35742188 12.125 C0 3.25347222 0 3.25347222 0 0 Z " fill="#272430" transform="translate(147,235)"/>
<path d="M0 0 C2.64 0.33 5.28 0.66 8 1 C8 1.33 8 1.66 8 2 C6.35 2 4.7 2 3 2 C2.67 45.89 2.34 89.78 2 135 C8.27 134.67 14.54 134.34 21 134 C16.96407706 136.69061529 14.24744039 137.13776194 9.5 137.125 C8.5409375 137.12757813 7.581875 137.13015625 6.59375 137.1328125 C4 137 4 137 1 136 C0.1784517 132.41077507 -0.12378174 129.10435037 -0.12025452 125.42546082 C-0.12162918 124.31633331 -0.12300385 123.20720581 -0.12442017 122.06446838 C-0.12082489 120.85749802 -0.11722961 119.65052765 -0.11352539 118.40698242 C-0.11367142 117.12853455 -0.11381744 115.85008667 -0.1139679 114.53289795 C-0.11425439 111.03535757 -0.10838157 107.5378516 -0.10139394 104.0403192 C-0.09513577 100.38213129 -0.09455465 96.72394256 -0.09336853 93.06575012 C-0.09026248 86.14208744 -0.08205888 79.21844057 -0.07201904 72.29478484 C-0.06083536 64.41090331 -0.05534177 56.52702101 -0.05032361 48.64313352 C-0.03987566 32.42874642 -0.02229027 16.21437523 0 0 Z " fill="#F09883" transform="translate(120,32)"/>
<path d="M0 0 C0.5625 1.9375 0.5625 1.9375 1 4 C0.67 4.33 0.34 4.66 0 5 C-0.10852231 6.75855767 -0.14687242 8.52147399 -0.15821838 10.28334045 C-0.1680072 11.42904007 -0.17779602 12.57473969 -0.18788147 13.75515747 C-0.19363693 15.02326263 -0.1993924 16.2913678 -0.20532227 17.59790039 C-0.21489566 18.93793544 -0.22490542 20.27796744 -0.23532104 21.61799622 C-0.26243458 25.26656149 -0.2834091 28.91513979 -0.30332303 32.56375051 C-0.32514295 36.37280116 -0.35255111 40.18181139 -0.37937927 43.99082947 C-0.42936034 51.20854822 -0.47427901 58.42628934 -0.51740164 65.64405197 C-0.56672785 73.85918128 -0.62166304 82.07427004 -0.67708123 90.28936017 C-0.79098435 107.19286932 -0.89780515 124.09641609 -1 141 C-1.99 141.33 -2.98 141.66 -4 142 C-3.89314204 141.01985019 -3.89314204 141.01985019 -3.78412533 140.01989937 C-3.06989114 132.94881316 -2.87341991 125.98161995 -2.91821289 118.87841797 C-2.92127945 117.72083984 -2.92434601 116.56326172 -2.92750549 115.37060547 C-2.93461658 112.87657845 -2.94398297 110.38255702 -2.95540047 107.88854599 C-2.97290236 103.93661594 -2.98334153 99.98470282 -2.99131775 96.03274536 C-3.01532891 84.80320359 -3.05134859 73.57371642 -3.09594727 62.34423828 C-3.12057225 56.12395826 -3.13788546 49.90369909 -3.14750665 43.68337739 C-3.15294749 40.40181381 -3.16345991 37.12038806 -3.18089485 33.83886337 C-3.20017005 30.18013272 -3.20701509 26.52156766 -3.21118164 22.86279297 C-3.21994324 21.79034332 -3.22870483 20.71789368 -3.23773193 19.61294556 C-3.2290825 12.93985838 -3.04189293 6.08378587 0 0 Z " fill="#74B6B5" transform="translate(256,45)"/>
<path d="M0 0 C0.495 0.99 0.495 0.99 1 2 C-0.65 2.66 -2.3 3.32 -4 4 C-4 4.33 -4 4.66 -4 5 C-0.7 5.33 2.6 5.66 6 6 C6 6.33 6 6.66 6 7 C4.91058105 7.11593506 3.82116211 7.23187012 2.69873047 7.35131836 C-1.36054357 7.78377756 -5.41956487 8.2185706 -9.47851562 8.65405273 C-11.23202872 8.84185981 -12.98560884 9.02904216 -14.73925781 9.21557617 C-17.26645699 9.48450344 -19.79340298 9.75570998 -22.3203125 10.02734375 C-23.09867462 10.10967758 -23.87703674 10.19201141 -24.6789856 10.27684021 C-28.81575722 10.72391047 -32.89648847 11.30179058 -37 12 C-38.62394748 12.0620775 -40.25005297 12.08712041 -41.875 12.0625 C-42.65617188 12.05347656 -43.43734375 12.04445312 -44.2421875 12.03515625 C-44.82226562 12.02355469 -45.40234375 12.01195312 -46 12 C-45.67 11.34 -45.34 10.68 -45 10 C-42.35852892 9.27410537 -39.76987393 8.66987832 -37.08984375 8.125 C-36.28897842 7.95500488 -35.4881131 7.78500977 -34.66297913 7.60986328 C-32.08943201 7.06522435 -29.51362894 6.53227988 -26.9375 6 C-24.38692072 5.46532176 -21.83685873 4.92825216 -19.28700256 4.39013672 C-17.6991859 4.05589496 -16.11086316 3.72404504 -14.5219574 3.39501953 C-9.64775814 2.37935458 -4.82343206 1.23514838 0 0 Z " fill="#3F908F" transform="translate(258,214)"/>
<path d="M0 0 C0.66 0 1.32 0 2 0 C2.08798432 18.85919381 1.8278368 37.70886675 1.53643799 56.56506348 C1.47484586 60.57525769 1.41525448 64.58548165 1.35546875 68.59570312 C1.23888004 76.39716495 1.12016358 84.19859233 1 92 C4.465 91.505 4.465 91.505 8 91 C4.77208445 93.1519437 3.71599191 93.20086443 0 93 C-0.15415133 82.05562391 -0.30232937 71.11118459 -0.4429636 60.16662598 C-0.5084574 55.08418359 -0.57597849 50.00178527 -0.64819336 44.91943359 C-0.71785897 40.0111734 -0.78211995 35.10286902 -0.84269524 30.19448853 C-0.86669933 28.32546436 -0.89262343 26.4564638 -0.92053413 24.5874939 C-0.95940858 21.96201259 -0.99134448 19.33652896 -1.02172852 16.7109375 C-1.03467453 15.94488693 -1.04762054 15.17883636 -1.06095886 14.38957214 C-1.10836133 9.49948909 -0.69865445 4.84164394 0 0 Z " fill="#E29179" transform="translate(176,76)"/>
<path d="M0 0 C7.62535479 0.76060988 15.02126387 2.42462639 22.5 4.0625 C23.8124307 4.3473247 25.12493022 4.6318325 26.4375 4.91601562 C29.62568901 5.60757133 32.81314691 6.30231863 36 7 C36 7.66 36 8.32 36 9 C29.97175106 9.23640192 24.41645502 8.49801528 18.47265625 7.50390625 C13.82160908 6.82900739 9.17626319 6.56824226 4.484375 6.34375 C3.66453125 6.2303125 2.8446875 6.116875 2 6 C1.67 5.34 1.34 4.68 1 4 C1.99 3.67 2.98 3.34 4 3 C2.68 2.01 1.36 1.02 0 0 Z " fill="#5AA7A3" transform="translate(97,217)"/>
<path d="M0 0 C-0.99 0.495 -0.99 0.495 -2 1 C0.475 1.495 0.475 1.495 3 2 C3 2.33 3 2.66 3 3 C-0.31092101 3.51083558 -3.62393479 4.00663214 -6.9375 4.5 C-7.86369141 4.64308594 -8.78988281 4.78617188 -9.74414062 4.93359375 C-15.56683571 5.79167513 -21.11474367 6.14486785 -27 6 C-26.67 5.34 -26.34 4.68 -26 4 C-23.82275391 3.2980957 -23.82275391 3.2980957 -20.9765625 2.67578125 C-19.44515625 2.34030273 -19.44515625 2.34030273 -17.8828125 1.99804688 C-16.27019531 1.65870117 -16.27019531 1.65870117 -14.625 1.3125 C-13.55765625 1.07466797 -12.4903125 0.83683594 -11.390625 0.59179688 C-3.38310573 -1.12770191 -3.38310573 -1.12770191 0 0 Z " fill="#66A09F" transform="translate(239,220)"/>
<path d="M0 0 C0.70125 0.39960938 1.4025 0.79921875 2.125 1.2109375 C2.83140625 1.613125 3.5378125 2.0153125 4.265625 2.4296875 C4.96171875 2.8525 5.6578125 3.2753125 6.375 3.7109375 C7.08140625 4.13375 7.7878125 4.5565625 8.515625 4.9921875 C9.04671875 5.394375 9.5778125 5.7965625 10.125 6.2109375 C10.125 6.8709375 10.125 7.5309375 10.125 8.2109375 C4.25690493 7.68700044 -0.42373741 6.44984892 -5.875 4.2109375 C-4.885 3.8809375 -3.895 3.5509375 -2.875 3.2109375 C-3.865 2.5509375 -4.855 1.8909375 -5.875 1.2109375 C-2.41221321 -1.01513972 -2.41221321 -1.01513972 0 0 Z " fill="#267D7E" transform="translate(120.875,207.7890625)"/>
<path d="M0 0 C0.66 0 1.32 0 2 0 C2 7.59 2 15.18 2 23 C1.34 23.33 0.68 23.66 0 24 C-1.33257403 7.1070615 -1.33257403 7.1070615 0 0 Z " fill="#DC7659" transform="translate(176,76)"/>
<path d="M0 0 C0.33 0.66 0.66 1.32 1 2 C-0.134375 2.45375 -1.26875 2.9075 -2.4375 3.375 C-6.04721692 4.57095806 -6.04721692 4.57095806 -7 7 C-9.47798938 8.09688777 -12.00548707 8.98448296 -14.5546875 9.90234375 C-16.96906669 10.9861146 -18.29065171 12.01330712 -20 14 C-20.66 13.67 -21.32 13.34 -22 13 C-15.64697866 6.93575236 -8.34973255 2.78324418 0 0 Z " fill="#E87D64" transform="translate(219,32)"/>
<path d="M0 0 C0.66 0.33 1.32 0.66 2 1 C1.67 1.66 1.34 2.32 1 3 C6.445 2.505 6.445 2.505 12 2 C8.71926465 3.64036768 5.99632926 4.67407528 2.5 5.625 C1.5615625 5.88539063 0.623125 6.14578125 -0.34375 6.4140625 C-3 7 -3 7 -7 7 C-7 6.34 -7 5.68 -7 5 C-5.46875 3.7109375 -5.46875 3.7109375 -3.5 2.375 C-2.8503125 1.92898437 -2.200625 1.48296875 -1.53125 1.0234375 C-1.0259375 0.68570313 -0.520625 0.34796875 0 0 Z " fill="#5AA19B" transform="translate(222,209)"/>
<path d="M0 0 C0.33 0 0.66 0 1 0 C1 10.23 1 20.46 1 31 C0.01 31.33 -0.98 31.66 -2 32 C-1.34 21.44 -0.68 10.88 0 0 Z " fill="#347A7D" transform="translate(254,155)"/>
<path d="M0 0 C0 0.66 0 1.32 0 2 C0.66 2.33 1.32 2.66 2 3 C1.67 3.33 1.34 3.66 1 4 C-1.19050021 3.90982004 -3.378466 3.75333792 -5.5625 3.5625 C-6.76003906 3.46066406 -7.95757812 3.35882813 -9.19140625 3.25390625 C-10.11824219 3.17011719 -11.04507813 3.08632812 -12 3 C-5.29411765 -1.47058824 -5.29411765 -1.47058824 0 0 Z " fill="#2D8282" transform="translate(246,219)"/>
<path d="M0 0 C5.0302076 0.52537724 10.01885239 1.10594786 15 2 C15 2.66 15 3.32 15 4 C9.47322267 4.19392201 5.24385089 3.7479503 0 2 C0 1.34 0 0.68 0 0 Z " fill="#70A09E" transform="translate(118,222)"/>
<path d="M0 0 C4.62 0 9.24 0 14 0 C11.50241909 2.49758091 10.66854525 2.97093282 7.125 3.125 C4.53752876 3.02150115 2.45577644 2.75562352 0 2 C0 1.34 0 0.68 0 0 Z " fill="#D99A6D" transform="translate(207,175)"/>
<path d="M0 0 C-3.94965569 2.6331038 -6.54875885 3.12274339 -11.1875 3.0625 C-12.53908203 3.04896484 -12.53908203 3.04896484 -13.91796875 3.03515625 C-14.60503906 3.02355469 -15.29210937 3.01195312 -16 3 C-16 2.34 -16 1.68 -16 1 C-10.62915894 0.31798844 -5.41499441 -0.11521265 0 0 Z " fill="#E26D57" transform="translate(141,166)"/>
<path d="M0 0 C-2.47809712 2.47809712 -4.96737867 4.24107963 -8 6 C-10.375 5.75 -10.375 5.75 -12 5 C-4.28571429 -1.42857143 -4.28571429 -1.42857143 0 0 Z " fill="#E9C4AC" transform="translate(154,168)"/>
<path d="M0 0 C9.41002278 0.96355353 9.41002278 0.96355353 14 2 C14 2.66 14 3.32 14 4 C12.00045254 4.04254356 9.99958364 4.04080783 8 4 C7.67 3.67 7.34 3.34 7 3 C4.67182036 2.63239269 2.3381615 2.29758419 0 2 C0 1.34 0 0.68 0 0 Z " fill="#23746F" transform="translate(104,220)"/>
<path d="M0 0 C0 1.32 0 2.64 0 4 C1.65 4.33 3.3 4.66 5 5 C5 5.66 5 6.32 5 7 C3.53775201 6.57576756 2.08026588 6.13509755 0.625 5.6875 C-0.18710938 5.44386719 -0.99921875 5.20023438 -1.8359375 4.94921875 C-4 4 -4 4 -6 1 C-3.92446352 0.4465236 -2.15634036 0 0 0 Z " fill="#E67A5C" transform="translate(205,162)"/>
<path d="M0 0 C0.33 0 0.66 0 1 0 C1.36630156 3.93774177 1.30233203 5.56539771 -1 8.875 C-1.66 9.57625 -2.32 10.2775 -3 11 C-4.25541557 7.23375329 -3.37061958 5.62811066 -2 2 C-1.34 2 -0.68 2 0 2 C0 1.34 0 0.68 0 0 Z " fill="#DAA77C" transform="translate(207,218)"/>
<path d="M0 0 C-0.99 0.495 -0.99 0.495 -2 1 C0.64 1.33 3.28 1.66 6 2 C5.67 2.66 5.34 3.32 5 4 C1.04 3.67 -2.92 3.34 -7 3 C-7 2.01 -7 1.02 -7 0 C-3.86650268 -1.04449911 -3.01031744 -0.93423645 0 0 Z " fill="#096965" transform="translate(259,217)"/>
<path d="M0 0 C0.53625 0.268125 1.0725 0.53625 1.625 0.8125 C-2.25064767 4.42389896 -2.25064767 4.42389896 -4.375 5.8125 C-6.75 5.625 -6.75 5.625 -8.375 4.8125 C-2.95961538 -0.23365385 -2.95961538 -0.23365385 0 0 Z " fill="#2C8482" transform="translate(250.375,190.1875)"/>
<path d="M0 0 C0.33 0.66 0.66 1.32 1 2 C0.67 2.99 0.34 3.98 0 5 C-0.99 5 -1.98 5 -3 5 C-3.12375 5.94875 -3.2475 6.8975 -3.375 7.875 C-4 11 -4 11 -6 13 C-5.4574852 8.44287564 -4.3106498 4.97431766 -2 1 C-1.34 0.67 -0.68 0.34 0 0 Z " fill="#E98B72" transform="translate(183,62)"/>
<path d="M0 0 C2.72107452 2.3500189 3.96702492 4.55674975 5 8 C4.67 8.99 4.34 9.98 4 11 C3.34 10.34 2.68 9.68 2 9 C2 8.01 2 7.02 2 6 C1.34 6 0.68 6 0 6 C0 4.02 0 2.04 0 0 Z " fill="#E7876E" transform="translate(164,65)"/>
<path d="M0 0 C0.66 0.33 1.32 0.66 2 1 C1.8125 4.3125 1.8125 4.3125 1 8 C-1.5625 9.9375 -1.5625 9.9375 -4 11 C-4 10.01 -4 9.02 -4 8 C-3.34 8 -2.68 8 -2 8 C-2 7.34 -2 6.68 -2 6 C-1.34 6 -0.68 6 0 6 C0 4.02 0 2.04 0 0 Z " fill="#4F9794" transform="translate(280,188)"/>
<path d="M0 0 C2.475 0.99 2.475 0.99 5 2 C5 3.98 5 5.96 5 8 C4.34 8 3.68 8 3 8 C1.02 4.535 1.02 4.535 -1 1 C-0.67 0.67 -0.34 0.34 0 0 Z " fill="#EDCBB5" transform="translate(139,222)"/>
<path d="M0 0 C0.66 0.66 1.32 1.32 2 2 C0.71937515 3.7074998 -0.61767557 5.37373596 -2 7 C-2.66 7 -3.32 7 -4 7 C-4.33 5.68 -4.66 4.36 -5 3 C-3.35 2.01 -1.7 1.02 0 0 Z " fill="#DD986C" transform="translate(182,173)"/>
<path d="M0 0 C-0.33 0.99 -0.66 1.98 -1 3 C-3.31 3 -5.62 3 -8 3 C-8 2.34 -8 1.68 -8 1 C-5.29120665 -0.35439668 -2.99066732 -0.06501451 0 0 Z " fill="#327F7A" transform="translate(281,31)"/>
<path d="M0 0 C2.475 0.99 2.475 0.99 5 2 C5 2.66 5 3.32 5 4 C3.741875 3.87625 2.48375 3.7525 1.1875 3.625 C0.12595703 3.52058594 0.12595703 3.52058594 -0.95703125 3.4140625 C-3 3 -3 3 -6 1 C-4.02 1 -2.04 1 0 1 C0 0.67 0 0.34 0 0 Z " fill="#73ADA5" transform="translate(126,212)"/>
<path d="M0 0 C1.16945792 0.80847729 2.33550461 1.62189112 3.5 2.4375 C4.47453125 3.11619141 4.47453125 3.11619141 5.46875 3.80859375 C5.9740625 4.20175781 6.479375 4.59492188 7 5 C7 5.33 7 5.66 7 6 C5.02 6 3.04 6 1 6 C0.67 4.02 0.34 2.04 0 0 Z " fill="#3A908D" transform="translate(112,201)"/>
<path d="M0 0 C-4.30769231 3.93846154 -4.30769231 3.93846154 -7.8125 4.25 C-8.534375 4.1675 -9.25625 4.085 -10 4 C-7.16124653 -0.25813021 -4.8137938 -0.13010254 0 0 Z " fill="#E56D57" transform="translate(191,163)"/>
<path d="M0 0 C0.66 0.66 1.32 1.32 2 2 C1.01 2.33 0.02 2.66 -1 3 C-1 2.34 -1 1.68 -1 1 C-2.98 1.99 -4.96 2.98 -7 4 C-7 2.68 -7 1.36 -7 0 C-4.29393021 -1.35303489 -2.8671629 -0.7884698 0 0 Z " fill="#338E8E" transform="translate(38,33)"/>
<path d="M0 0 C-4.29 -0.33 -8.58 -0.66 -13 -1 C-13 -1.33 -13 -1.66 -13 -2 C-7.76481271 -3.34619102 -4.52566413 -3.01710942 0 0 Z " fill="#529D9C" transform="translate(62,219)"/>
<path d="M0 0 C1.32 0.33 2.64 0.66 4 1 C1.03 3.475 1.03 3.475 -2 6 C-2.33 5.34 -2.66 4.68 -3 4 C-2.01 2.68 -1.02 1.36 0 0 Z " fill="#257C79" transform="translate(237,198)"/>
<path d="M0 0 C-0.93972656 0.19916016 -0.93972656 0.19916016 -1.8984375 0.40234375 C-3.12433594 0.66724609 -3.12433594 0.66724609 -4.375 0.9375 C-5.18710937 1.11152344 -5.99921875 1.28554687 -6.8359375 1.46484375 C-9.029463 1.92330693 -9.029463 1.92330693 -11 3 C-11.66 2.34 -12.32 1.68 -13 1 C-11.58622218 0.63447197 -10.16879424 0.28304505 -8.75 -0.0625 C-7.96109375 -0.25972656 -7.1721875 -0.45695313 -6.359375 -0.66015625 C-3.89605178 -1.01497267 -2.34395868 -0.76877544 0 0 Z " fill="#0C6C66" transform="translate(283,212)"/>
<path d="M0 0 C0.33 0 0.66 0 1 0 C1.33 3.3 1.66 6.6 2 10 C1.01 10.33 0.02 10.66 -1 11 C-0.67 7.37 -0.34 3.74 0 0 Z " fill="#68AEAE" transform="translate(253,176)"/>
<path d="M0 0 C1.32 0 2.64 0 4 0 C3.34 1.32 2.68 2.64 2 4 C0.35 4 -1.3 4 -3 4 C-2.34 3.67 -1.68 3.34 -1 3 C-0.67 2.01 -0.34 1.02 0 0 Z " fill="#D69D75" transform="translate(188,170)"/>
<path d="M0 0 C0.99 0 1.98 0 3 0 C2.6875 1.9375 2.6875 1.9375 2 4 C1.01 4.33 0.02 4.66 -1 5 C-1.66 4.34 -2.32 3.68 -3 3 C-2.01 2.67 -1.02 2.34 0 2 C0 1.34 0 0.68 0 0 Z " fill="#DCA87F" transform="translate(193,166)"/>
<path d="" fill="#F0D9D4" transform="translate(0,0)"/>
<path d="" fill="#ECDECB" transform="translate(0,0)"/>
</svg>
